<svg viewBox="0 0 16 16" xmlns="http://www.w3.org/2000/svg" xmlns:xlink="http://www.w3.org/1999/xlink" width="300" height="300" version="1.1" xmlns:svgjs="http://svgjs.dev/svgjs"><g transform="matrix(1,0,0,1,0,0)"><defs><path id="path-1" d="m2 0c-1.10303 0-2 .896973-2 2 0 1.10303.896973 2 2 2 1.10303 0 2-.896973 2-2 0-1.10303-.896973-2-2-2zm0 3c-.55127 0-1-.44873-1-1s.44873-1 1-1 1 .44873 1 1-.44873 1-1 1z" fill="#ffffffff" data-original-color="#000000ff" stroke="none"/></defs><g><use transform="translate(10 12)" xlink:href="#path-1"/><use transform="translate(4 12)" xlink:href="#path-1"/><path d="m2 5h1v-2h2v-1h-2v-2h-1v2h-2v1h2z" transform="translate(5)" fill="#ffffffff" data-original-color="#000000ff" stroke="none"/><path d="m15.9028 2.20361c-.0942383-.12793-.243652-.203613-.402832-.203613h-3.5v1h2.81982l-2.1875 7h-7.72266l-1.91943-9.59814c-.046875-.233398-.251953-.401855-.490234-.401855h-2.5v1h2.09033l1.91943 9.59814c.046875.233398.251953.401855.490234.401855h8.5c.21875 0 .412109-.14209.477051-.351074l2.5-8c.0478525-.151367.0200195-.316895-.0742188-.445313z" fill="#ffffffff" data-original-color="#000000ff" stroke="none"/></g></g></svg>