<svg id="Capa_1" enable-background="new 0 0 416 416" height="512" viewBox="0 0 416 416" width="512" xmlns="http://www.w3.org/2000/svg"><g><path d="m304.037 320h-104.144c-39.423.158-73.028-28.555-79.024-67.52l-26.816-169.984c-1.379-8.728 4.58-16.922 13.308-18.3.822-.13 1.652-.195 2.484-.196h254.4c26.51.005 47.996 21.499 47.991 48.009-.001 3.375-.357 6.74-1.063 10.039l-28.8 134.704c-8.052 36.843-40.624 63.142-78.336 63.248zm-175.472-224 23.904 151.488c3.603 23.38 23.768 40.606 47.424 40.512h104.144c22.602-.095 42.108-15.87 46.928-37.952l28.8-134.704c1.847-8.641-3.661-17.144-12.302-18.991-1.079-.231-2.178-.349-3.282-.353z"/><path d="m136.709 265.921c-7.868-.006-14.565-5.732-15.792-13.504l-32.72-206.913c-1.177-7.8-7.904-13.552-15.792-13.504h-52.64c-8.837 0-16-7.163-16-16s7.163-16 16-16h52.64c23.666-.106 43.841 17.135 47.424 40.528l32.736 206.896c1.372 8.72-4.578 16.903-13.296 18.288-.846.143-1.703.212-2.56.209z"/><path d="m115.765 144h-96c-8.837 0-16-7.163-16-16s7.163-16 16-16h96c8.837 0 16 7.163 16 16s-7.164 16-16 16z"/><path d="m115.765 208h-80c-8.837 0-16-7.163-16-16s7.163-16 16-16h80c8.837 0 16 7.163 16 16s-7.164 16-16 16z"/><path d="m131.765 272h-80c-8.837 0-16-7.163-16-16s7.163-16 16-16h80c8.837 0 16 7.163 16 16s-7.164 16-16 16z"/><path d="m179.765 416c-26.51 0-48-21.49-48-48s21.49-48 48-48 48 21.49 48 48-21.491 48-48 48zm0-64c-8.837 0-16 7.163-16 16s7.163 16 16 16 16-7.163 16-16-7.164-16-16-16z"/><path d="m323.765 416c-26.51 0-48-21.49-48-48s21.49-48 48-48 48 21.49 48 48-21.491 48-48 48zm0-64c-8.837 0-16 7.163-16 16s7.163 16 16 16 16-7.163 16-16-7.164-16-16-16z"/></g></svg>