<svg height="120" viewBox="0 0 180 120" width="180" xmlns="http://www.w3.org/2000/svg" xmlns:sketch="http://www.bohemiancoding.com/sketch/ns"><g id="Ameria" fill="none" fill-rule="evenodd"><g id="Group"><g id="US"><g id="Group"><path id="Oval-1" d="m0 0h180v120h-180z" fill="#ca4638"/><g fill="#fff"><path id="Rectangle-1" d="m0 9h180v9h-180z"/><path id="Rectangle-1" d="m0 27h180v9h-180z"/><path id="Rectangle-1" d="m0 45h180v9h-180z"/><path id="Rectangle-1" d="m0 64h180v9h-180z"/><path id="Rectangle-1" d="m0 83h180v9h-180z"/><path id="Rectangle-1" d="m0 102h180v9h-180z"/></g><path id="Oval-38-copy-3" d="m0 0h90v64h-90z" fill="#346da6"/></g><g id="stars" fill="#fff" transform="translate(2 4)"><g id="Group"><path id="Star-1" d="m2.99999969 4.97507751-1.85410159 1.02492244.35410181-2.17082038-1.49999991-1.53738349 2.07294915-.31671872.92705064-1.97507736.92705121 1.97507785 2.072949.31671981-1.50000052 1.53738232.35410187 2.17082002z"/><path id="Star-1" d="m2.99999969 17.9750775-1.85410159 1.0249225.35410181-2.1708204-1.49999991-1.5373835 2.07294915-.3167187.92705064-1.9750774.92705121 1.9750778 2.072949.3167199-1.50000052 1.5373823.35410187 2.17082z"/><path id="Star-1" d="m2.99999969 29.9750775-1.85410159 1.0249225.35410181-2.1708204-1.49999991-1.5373835 2.07294915-.3167187.92705064-1.9750774.92705121 1.9750778 2.072949.3167199-1.50000052 1.5373823.35410187 2.17082z"/><path id="Star-1" d="m2.99999969 42.9750775-1.85410159 1.0249225.35410181-2.1708204-1.49999991-1.5373835 2.07294915-.3167187.92705064-1.9750774.92705121 1.9750778 2.072949.3167199-1.50000052 1.5373823.35410187 2.17082z"/><path id="Star-1" d="m2.99999969 55.9750775-1.85410159 1.0249225.35410181-2.1708204-1.49999991-1.5373835 2.07294915-.3167187.92705064-1.9750774.92705121 1.9750778 2.072949.3167199-1.50000052 1.5373823.35410187 2.17082z"/><path id="Star-1" d="m10.9999997 23.9750775-1.8541016 1.0249225.35410181-2.1708204-1.49999991-1.5373835 2.0729492-.3167187.9270506-1.9750774.9270512 1.9750778 2.072949.3167199-1.5000005 1.5373823.3541018 2.17082z"/><path id="Path" d="m10.9999997 36.9750775-1.8541016 1.0249225.35410181-2.1708204-1.49999991-1.5373835 2.0729492-.3167187.9270506-1.9750774.9270512 1.9750778 2.072949.3167199-1.5000005 1.5373823.3541018 2.17082z"/><path id="Path" d="m10.9999997 10.9750775-1.8541016 1.0249225.35410181-2.17082043-1.49999991-1.53738349 2.0729492-.31671872.9270506-1.97507736.9270512 1.97507785 2.072949.31671981-1.5000005 1.53738232.3541018 2.17082002z"/><path id="Star-1" d="m10.9999997 48.9750775-1.8541016 1.0249225.35410181-2.1708204-1.49999991-1.5373835 2.0729492-.3167187.9270506-1.9750774.9270512 1.9750778 2.072949.3167199-1.5000005 1.5373823.3541018 2.17082z"/><path id="Star-1" d="m18.9999997 4.97507751-1.8541016 1.02492244.3541018-2.17082038-1.4999999-1.53738349 2.0729492-.31671872.9270506-1.97507736.9270512 1.97507785 2.072949.31671981-1.5000005 1.53738232.3541018 2.17082002z"/><path id="Star-1" d="m18.9999997 17.9750775-1.8541016 1.0249225.3541018-2.1708204-1.4999999-1.5373835 2.0729492-.3167187.9270506-1.9750774.9270512 1.9750778 2.072949.3167199-1.5000005 1.5373823.3541018 2.17082z"/><path id="Star-1" d="m18.9999997 29.9750775-1.8541016 1.0249225.3541018-2.1708204-1.4999999-1.5373835 2.0729492-.3167187.9270506-1.9750774.9270512 1.9750778 2.072949.3167199-1.5000005 1.5373823.3541018 2.17082z"/><path id="Star-1" d="m18.9999997 42.9750775-1.8541016 1.0249225.3541018-2.1708204-1.4999999-1.5373835 2.0729492-.3167187.9270506-1.9750774.9270512 1.9750778 2.072949.3167199-1.5000005 1.5373823.3541018 2.17082z"/><path id="Star-1" d="m18.9999997 55.9750775-1.8541016 1.0249225.3541018-2.1708204-1.4999999-1.5373835 2.0729492-.3167187.9270506-1.9750774.9270512 1.9750778 2.072949.3167199-1.5000005 1.5373823.3541018 2.17082z"/><path id="Star-1" d="m26.9999997 23.9750775-1.8541016 1.0249225.3541018-2.1708204-1.4999999-1.5373835 2.0729492-.3167187.9270506-1.9750774.9270512 1.9750778 2.072949.3167199-1.5000005 1.5373823.3541018 2.17082z"/><path id="Path" d="m26.9999997 36.9750775-1.8541016 1.0249225.3541018-2.1708204-1.4999999-1.5373835 2.0729492-.3167187.9270506-1.9750774.9270512 1.9750778 2.072949.3167199-1.5000005 1.5373823.3541018 2.17082z"/><path id="Path" d="m26.9999997 10.9750775-1.8541016 1.0249225.3541018-2.17082043-1.4999999-1.53738349 2.0729492-.31671872.9270506-1.97507736.9270512 1.97507785 2.072949.31671981-1.5000005 1.53738232.3541018 2.17082002z"/><path id="Star-1" d="m26.9999997 48.9750775-1.8541016 1.0249225.3541018-2.1708204-1.4999999-1.5373835 2.0729492-.3167187.9270506-1.9750774.9270512 1.9750778 2.072949.3167199-1.5000005 1.5373823.3541018 2.17082z"/><path id="Star-1" d="m34.9999997 4.97507751-1.8541016 1.02492244.3541018-2.17082038-1.4999999-1.53738349 2.0729492-.31671872.9270506-1.97507736.9270512 1.97507785 2.072949.31671981-1.5000005 1.53738232.3541018 2.17082002z"/><path id="Star-1" d="m34.9999997 17.9750775-1.8541016 1.0249225.3541018-2.1708204-1.4999999-1.5373835 2.0729492-.3167187.9270506-1.9750774.9270512 1.9750778 2.072949.3167199-1.5000005 1.5373823.3541018 2.17082z"/><path id="Star-1" d="m34.9999997 29.9750775-1.8541016 1.0249225.3541018-2.1708204-1.4999999-1.5373835 2.0729492-.3167187.9270506-1.9750774.9270512 1.9750778 2.072949.3167199-1.5000005 1.5373823.3541018 2.17082z"/><path id="Star-1" d="m34.9999997 42.9750775-1.8541016 1.0249225.3541018-2.1708204-1.4999999-1.5373835 2.0729492-.3167187.9270506-1.9750774.9270512 1.9750778 2.072949.3167199-1.5000005 1.5373823.3541018 2.17082z"/><path id="Star-1" d="m34.9999997 55.9750775-1.8541016 1.0249225.3541018-2.1708204-1.4999999-1.5373835 2.0729492-.3167187.9270506-1.9750774.9270512 1.9750778 2.072949.3167199-1.5000005 1.5373823.3541018 2.17082z"/><path id="Star-1" d="m42.9999997 23.9750775-1.8541016 1.0249225.3541018-2.1708204-1.4999999-1.5373835 2.0729492-.3167187.9270506-1.9750774.9270512 1.9750778 2.072949.3167199-1.5000005 1.5373823.3541018 2.17082z"/><path id="Path" d="m42.9999997 36.9750775-1.8541016 1.0249225.3541018-2.1708204-1.4999999-1.5373835 2.0729492-.3167187.9270506-1.9750774.9270512 1.9750778 2.072949.3167199-1.5000005 1.5373823.3541018 2.17082z"/><path id="Path" d="m42.9999997 10.9750775-1.8541016 1.0249225.3541018-2.17082043-1.4999999-1.53738349 2.0729492-.31671872.9270506-1.97507736.9270512 1.97507785 2.072949.31671981-1.5000005 1.53738232.3541018 2.17082002z"/><path id="Star-1" d="m42.9999997 48.9750775-1.8541016 1.0249225.3541018-2.1708204-1.4999999-1.5373835 2.0729492-.3167187.9270506-1.9750774.9270512 1.9750778 2.072949.3167199-1.5000005 1.5373823.3541018 2.17082z"/><path id="Star-1" d="m50.9999997 4.97507751-1.8541016 1.02492244.3541018-2.17082038-1.4999999-1.53738349 2.0729492-.31671872.9270506-1.97507736.9270512 1.97507785 2.072949.31671981-1.5000005 1.53738232.3541018 2.17082002z"/><path id="Star-1" d="m50.9999997 17.9750775-1.8541016 1.0249225.3541018-2.1708204-1.4999999-1.5373835 2.0729492-.3167187.9270506-1.9750774.9270512 1.9750778 2.072949.3167199-1.5000005 1.5373823.3541018 2.17082z"/><path id="Star-1" d="m50.9999997 29.9750775-1.8541016 1.0249225.3541018-2.1708204-1.4999999-1.5373835 2.0729492-.3167187.9270506-1.9750774.9270512 1.9750778 2.072949.3167199-1.5000005 1.5373823.3541018 2.17082z"/><path id="Star-1" d="m50.9999997 42.9750775-1.8541016 1.0249225.3541018-2.1708204-1.4999999-1.5373835 2.0729492-.3167187.9270506-1.9750774.9270512 1.9750778 2.072949.3167199-1.5000005 1.5373823.3541018 2.17082z"/><path id="Star-1" d="m50.9999997 55.9750775-1.8541016 1.0249225.3541018-2.1708204-1.4999999-1.5373835 2.0729492-.3167187.9270506-1.9750774.9270512 1.9750778 2.072949.3167199-1.5000005 1.5373823.3541018 2.17082z"/><path id="Star-1" d="m58.9999997 23.9750775-1.8541016 1.0249225.3541018-2.1708204-1.4999999-1.5373835 2.0729492-.3167187.9270506-1.9750774.9270512 1.9750778 2.072949.3167199-1.5000005 1.5373823.3541018 2.17082z"/><path id="Path" d="m58.9999997 36.9750775-1.8541016 1.0249225.3541018-2.1708204-1.4999999-1.5373835 2.0729492-.3167187.9270506-1.9750774.9270512 1.9750778 2.072949.3167199-1.5000005 1.5373823.3541018 2.17082z"/><path id="Path" d="m58.9999997 10.9750775-1.8541016 1.0249225.3541018-2.17082043-1.4999999-1.53738349 2.0729492-.31671872.9270506-1.97507736.9270512 1.97507785 2.072949.31671981-1.5000005 1.53738232.3541018 2.17082002z"/><path id="Star-1" d="m58.9999997 48.9750775-1.8541016 1.0249225.3541018-2.1708204-1.4999999-1.5373835 2.0729492-.3167187.9270506-1.9750774.9270512 1.9750778 2.072949.3167199-1.5000005 1.5373823.3541018 2.17082z"/><path id="Star-1" d="m66.9999997 4.97507751-1.8541016 1.02492244.3541018-2.17082038-1.4999999-1.53738349 2.0729492-.31671872.9270506-1.97507736.9270512 1.97507785 2.072949.31671981-1.5000005 1.53738232.3541018 2.17082002z"/><path id="Star-1" d="m66.9999997 17.9750775-1.8541016 1.0249225.3541018-2.1708204-1.4999999-1.5373835 2.0729492-.3167187.9270506-1.9750774.9270512 1.9750778 2.072949.3167199-1.5000005 1.5373823.3541018 2.17082z"/><path id="Star-1" d="m66.9999997 29.9750775-1.8541016 1.0249225.3541018-2.1708204-1.4999999-1.5373835 2.0729492-.3167187.9270506-1.9750774.9270512 1.9750778 2.072949.3167199-1.5000005 1.5373823.3541018 2.17082z"/><path id="Star-1" d="m66.9999997 42.9750775-1.8541016 1.0249225.3541018-2.1708204-1.4999999-1.5373835 2.0729492-.3167187.9270506-1.9750774.9270512 1.9750778 2.072949.3167199-1.5000005 1.5373823.3541018 2.17082z"/><path id="Star-1" d="m66.9999997 55.9750775-1.8541016 1.0249225.3541018-2.1708204-1.4999999-1.5373835 2.0729492-.3167187.9270506-1.9750774.9270512 1.9750778 2.072949.3167199-1.5000005 1.5373823.3541018 2.17082z"/><path id="Star-1" d="m74.9999997 23.9750775-1.8541016 1.0249225.3541018-2.1708204-1.4999999-1.5373835 2.0729492-.3167187.9270506-1.9750774.9270512 1.9750778 2.072949.3167199-1.5000005 1.5373823.3541018 2.17082z"/><path id="Path" d="m74.9999997 36.9750775-1.8541016 1.0249225.3541018-2.1708204-1.4999999-1.5373835 2.0729492-.3167187.9270506-1.9750774.9270512 1.9750778 2.072949.3167199-1.5000005 1.5373823.3541018 2.17082z"/><path id="Path" d="m74.9999997 10.9750775-1.8541016 1.0249225.3541018-2.17082043-1.4999999-1.53738349 2.0729492-.31671872.9270506-1.97507736.9270512 1.97507785 2.072949.31671981-1.5000005 1.53738232.3541018 2.17082002z"/><path id="Star-1" d="m74.9999997 48.9750775-1.8541016 1.0249225.3541018-2.1708204-1.4999999-1.5373835 2.0729492-.3167187.9270506-1.9750774.9270512 1.9750778 2.072949.3167199-1.5000005 1.5373823.3541018 2.17082z"/><path id="Star-1" d="m82.9999997 4.97507751-1.8541016 1.02492244.3541018-2.17082038-1.4999999-1.53738349 2.0729492-.31671872.9270506-1.97507736.9270512 1.97507785 2.072949.31671981-1.5000005 1.53738232.3541018 2.17082002z"/><path id="Star-1" d="m82.9999997 17.9750775-1.8541016 1.0249225.3541018-2.1708204-1.4999999-1.5373835 2.0729492-.3167187.9270506-1.9750774.9270512 1.9750778 2.072949.3167199-1.5000005 1.5373823.3541018 2.17082z"/><path id="Star-1" d="m82.9999997 29.9750775-1.8541016 1.0249225.3541018-2.1708204-1.4999999-1.5373835 2.0729492-.3167187.9270506-1.9750774.9270512 1.9750778 2.072949.3167199-1.5000005 1.5373823.3541018 2.17082z"/><path id="Star-1" d="m82.9999997 42.9750775-1.8541016 1.0249225.3541018-2.1708204-1.4999999-1.5373835 2.0729492-.3167187.9270506-1.9750774.9270512 1.9750778 2.072949.3167199-1.5000005 1.5373823.3541018 2.17082z"/><path id="Star-1" d="m82.9999997 55.9750775-1.8541016 1.0249225.3541018-2.1708204-1.4999999-1.5373835 2.0729492-.3167187.9270506-1.9750774.9270512 1.9750778 2.072949.3167199-1.5000005 1.5373823.3541018 2.17082z"/></g></g></g></g></g></svg>